<svg xmlns="http://www.w3.org/2000/svg" width="48" height="32" viewBox="0 0 48 32">
  <rect width="48" height="32" rx="4" fill="#F7F7F7"/>
  <path d="M24.5 8C20.3579 8 17 11.3579 17 15.5C17 19.6421 20.3579 23 24.5 23C28.6421 23 32 19.6421 32 15.5C32 11.3579 28.6421 8 24.5 8ZM24.5 21C21.4624 21 19 18.5376 19 15.5C19 12.4624 21.4624 10 24.5 10C27.5376 10 30 12.4624 30 15.5C30 18.5376 27.5376 21 24.5 21Z" fill="#00A4E0"/>
  <path d="M24.5 12C22.567 12 21 13.567 21 15.5C21 17.433 22.567 19 24.5 19C26.433 19 28 17.433 28 15.5C28 13.567 26.433 12 24.5 12ZM24.5 17C23.6716 17 23 16.3284 23 15.5C23 14.6716 23.6716 14 24.5 14C25.3284 14 26 14.6716 26 15.5C26 16.3284 25.3284 17 24.5 17Z" fill="#FFF200"/>
  <path d="M24.5 13C23.1193 13 22 14.1193 22 15.5C22 16.8807 23.1193 18 24.5 18C25.8807 18 27 16.8807 27 15.5C27 14.1193 25.8807 13 24.5 13ZM24.5 16C24.2239 16 24 15.7761 24 15.5C24 15.2239 24.2239 15 24.5 15C24.7761 15 25 15.2239 25 15.5C25 15.7761 24.7761 16 24.5 16Z" fill="#EF4123"/>
</svg> 