<svg xmlns="http://www.w3.org/2000/svg" width="48" height="32" viewBox="0 0 48 32">
  <rect width="48" height="32" rx="4" fill="#F7F7F7"/>
  <path d="M21.2824 13.1851L18.9328 19.0024H17.0977L15.4439 14.3766C15.3389 14.0301 15.2477 13.8801 14.9674 13.7301C14.5084 13.4801 13.7728 13.2451 13.125 13.1076L13.1797 13.1851H10.1367L10.1094 13.3351C11.1367 13.5701 12.0547 13.9166 12.8994 14.3616L14.9811 19.0024H16.8436L20.5195 13.1851H21.2824Z" fill="#1434CB"/>
  <path d="M33.3516 19.0024H35.0781L33.2266 13.1851H31.7266C31.2266 13.1851 30.8086 13.3351 30.6016 13.8801L27.7266 19.0024H29.5781L30.0156 17.8024H32.9141L33.3516 19.0024ZM30.5469 16.4024L31.6016 13.9351L32.3516 16.4024H30.5469Z" fill="#1434CB"/>
  <path d="M27.0547 14.8024L27.3516 13.3351C26.6016 13.0851 25.6016 12.8351 24.4141 12.8351C23.1016 12.8351 21.3516 13.3351 21.3516 14.8024C21.3516 16.0024 22.7266 16.5024 23.7266 16.8024C24.7266 17.1024 25.0547 17.3351 25.0547 17.6851C25.0547 18.1851 24.3516 18.4024 23.7266 18.4024C22.8516 18.4024 21.9766 18.1851 21.2266 17.8351L20.9297 19.3024C21.6797 19.6024 22.7266 19.8024 23.8516 19.8024C25.8516 19.8024 27.0547 18.8024 27.0547 17.5024C27.0547 16.0024 25.6797 15.5024 24.6797 15.2024C23.6797 14.9024 23.3516 14.6851 23.3516 14.3351C23.3516 13.8351 23.9766 13.6851 24.5547 13.6851C25.2266 13.6851 25.8516 13.8351 26.4297 14.0851L27.0547 14.8024Z" fill="#1434CB"/>
  <path d="M37.8516 13.1851L34.8516 19.0024H36.7031L39.7031 13.1851H37.8516Z" fill="#1434CB"/>
</svg> 